<?xml version="1.0" encoding="utf-8"?>
<!-- Generator: Adobe Illustrator 21.0.0, SVG Export Plug-In . SVG Version: 6.00 Build 0)  -->
<svg version="1.1" id="Layer_1" xmlns="http://www.w3.org/2000/svg" xmlns:xlink="http://www.w3.org/1999/xlink" x="0px" y="0px"
	 viewBox="0 0 76.7 74.9" style="enable-background:new 0 0 76.7 74.9;" xml:space="preserve">
<style type="text/css">
	.st0{fill:#FFFFFF;}
</style>
<g>
	<path class="st0" d="M38,48.2c-6.9,0-12.5-5.6-12.5-12.5S31.1,23.2,38,23.2s12.5,5.6,12.5,12.5S44.9,48.2,38,48.2z M38,25.4
		c-5.7,0-10.3,4.6-10.3,10.3S32.3,46,38,46s10.3-4.6,10.3-10.3S43.7,25.4,38,25.4z"/>
	<path class="st0" d="M37.7,74.9C31.8,74.8,27,70,27.1,64.1c0-0.3,0-0.6,0.1-0.9c-1.4-0.6-2.7-1.2-4-2c-0.2,0.2-0.5,0.4-0.7,0.6
		c-1.3,1-2.7,1.7-4.3,2c-4,0.9-8.2-0.6-10.7-3.8c-1.8-2.2-2.6-5-2.2-7.9c0.3-2.8,1.8-5.4,4-7.1c0.2-0.2,0.5-0.4,0.8-0.5
		c-0.2-0.7-0.4-1.5-0.6-2.2s-0.3-1.4-0.4-2.1c-0.3,0-0.6-0.1-0.9-0.2c-2.8-0.7-5.1-2.4-6.6-4.8c-1.5-2.4-2-5.3-1.3-8.1
		C1,24.3,2.7,22,5.1,20.5s5.3-2,8.1-1.3c0.3,0.1,0.6,0.2,0.9,0.3c0.8-1.2,1.8-2.4,2.8-3.5c-0.2-0.3-0.3-0.5-0.4-0.8
		c-1.2-2.6-1.4-5.5-0.4-8.2s2.9-4.8,5.5-6c5.3-2.5,11.7-0.2,14.2,5.1c0.1,0.3,0.2,0.6,0.4,0.8c1.5-0.1,3-0.1,4.5,0
		c0.1-0.3,0.2-0.6,0.4-0.8c2.6-5.3,9-7.5,14.3-4.9s7.5,9,4.9,14.3c-0.1,0.3-0.3,0.5-0.4,0.8c1,1.1,1.9,2.3,2.8,3.5
		c0.3-0.1,0.6-0.2,0.9-0.2c2.8-0.6,5.7-0.1,8.1,1.4s4.1,3.9,4.7,6.7v0.2c1.3,5.8-2.4,11.5-8.2,12.7c-0.3,0.1-0.6,0.1-0.9,0.2
		c-0.2,1.5-0.6,2.9-1,4.3c0.3,0.2,0.5,0.4,0.7,0.5c2.2,1.8,3.6,4.3,3.9,7.2c0.3,2.8-0.5,5.6-2.3,7.9c-1.5,1.9-3.7,3.2-6,3.7
		c-3.2,0.7-6.5-0.1-9-2.1c-0.2-0.2-0.5-0.4-0.7-0.6c-1.3,0.7-2.6,1.4-4,1.9c0,0.3,0,0.6,0,0.9c0,5-3.5,9.3-8.4,10.4
		C39.3,74.8,38.5,74.9,37.7,74.9z M22.8,58.4l0.8,0.5c1.6,1,3.4,1.9,5.2,2.5l0.9,0.3l-0.2,0.9c-0.1,0.5-0.1,1-0.1,1.5
		c0,4.7,3.8,8.5,8.4,8.6c0.6,0,1.3-0.1,1.9-0.2c3.9-0.9,6.7-4.2,6.7-8.3c0-0.4,0-0.9-0.1-1.4L46,61.9l0.9-0.3
		c1.8-0.6,3.6-1.5,5.2-2.5l0.8-0.5l0.6,0.7c0.4,0.4,0.7,0.7,1,1c2,1.6,4.6,2.3,7.2,1.7c1.9-0.4,3.6-1.5,4.8-3c1.4-1.8,2.1-4,1.8-6.2
		c-0.2-2.3-1.3-4.3-3.1-5.7c-0.4-0.3-0.7-0.6-1.2-0.8l-0.8-0.5l0.3-0.9c0.6-1.8,1.1-3.7,1.3-5.6l0.1-0.9h0.9c0.5,0,1-0.1,1.4-0.2
		c4.6-1,7.5-5.5,6.5-10.1l-0.1-0.2c-0.5-2.2-1.8-4.1-3.7-5.3c-1.9-1.2-4.2-1.6-6.4-1.1l0,0c-0.4,0.1-0.9,0.2-1.4,0.4l-0.8,0.3
		L61,21.6c-1-1.6-2.2-3.1-3.6-4.5l-0.6-0.7l0.5-0.7c0.3-0.5,0.6-0.8,0.8-1.2c2.1-4.2,0.3-9.3-3.9-11.4S44.9,2.8,42.8,7
		c-0.2,0.4-0.4,0.9-0.5,1.4L42,9.2l-1-0.1c-1.9-0.2-3.8-0.2-5.8,0h-0.8l-0.2-0.9c-0.1-0.5-0.3-1-0.5-1.4c-2-4.2-7.1-6.1-11.3-4
		c-2.1,1-3.6,2.7-4.4,4.8s-0.7,4.5,0.3,6.5c0.2,0.4,0.5,0.9,0.7,1.3l0.5,0.8l-0.6,0.6c-1.4,1.4-2.6,2.9-3.6,4.5l-0.6,0.8l-0.8-0.4
		c-0.5-0.2-0.9-0.4-1.4-0.5c-2.2-0.5-4.5-0.2-6.4,1s-3.3,3.1-3.8,5.3s-0.2,4.5,1,6.4s3.1,3.3,5.3,3.8c0.4,0.1,0.9,0.2,1.5,0.2
		l0.9,0.2l0.1,0.9c0.1,0.9,0.3,1.9,0.5,2.8c0.2,0.9,0.5,1.9,0.8,2.8l0.3,0.9l-0.8,0.4c-0.5,0.3-0.9,0.5-1.2,0.8
		c-1.8,1.4-2.9,3.4-3.2,5.7c-0.3,2.3,0.4,4.5,1.8,6.3c2,2.5,5.3,3.8,8.5,3.1c1.3-0.3,2.4-0.8,3.4-1.6c0.4-0.3,0.7-0.6,1.1-1
		L22.8,58.4z"/>
	<path class="st0" d="M35.7,57.5L35.7,57.5c-1.6-0.2-3.1-0.5-4.6-1c-0.6-0.2-0.9-0.8-0.7-1.4s0.8-0.9,1.4-0.7c1.3,0.4,2.7,0.7,4,0.9
		c0.6,0.1,1,0.6,1,1.2C36.7,57.1,36.2,57.5,35.7,57.5z M41.5,57.3c-0.5,0-1-0.4-1.1-0.9c-0.1-0.6,0.3-1.2,0.9-1.3
		c9.5-1.6,16.4-9.8,16.4-19.4c0-8.4-5.4-15.9-13.3-18.7c-0.6-0.2-0.9-0.8-0.7-1.4s0.8-0.9,1.4-0.7c8.9,3,14.8,11.4,14.8,20.7
		c0,10.7-7.7,19.8-18.2,21.6C41.6,57.3,41.6,57.3,41.5,57.3z M21,48.9c-0.3,0-0.7-0.2-0.9-0.5c-2.7-3.7-4.1-8.1-4.1-12.7
		c0-5.8,2.2-11.3,6.3-15.4c0.4-0.4,1.1-0.4,1.5,0s0.4,1.1,0,1.5c-3.7,3.7-5.7,8.6-5.7,13.9c0,4.1,1.3,8.1,3.7,11.5
		c0.4,0.5,0.2,1.2-0.3,1.5C21.5,48.8,21.3,48.9,21,48.9z M27.8,18.6c-0.4,0-0.8-0.2-1-0.6c-0.3-0.5-0.1-1.2,0.4-1.5
		c1.3-0.8,2.8-1.4,4.2-1.8c0.6-0.2,1.2,0.1,1.4,0.7s-0.1,1.2-0.7,1.4c-1.3,0.4-2.6,1-3.8,1.6C28.2,18.6,28,18.6,27.8,18.6z"/>
</g>
</svg>
