<?xml version="1.0" encoding="utf-8"?>
<!-- Generator: Adobe Illustrator 21.0.0, SVG Export Plug-In . SVG Version: 6.00 Build 0)  -->
<svg version="1.1" id="Layer_1" xmlns="http://www.w3.org/2000/svg" xmlns:xlink="http://www.w3.org/1999/xlink" x="0px" y="0px"
	 viewBox="0 0 82.8 70.6" style="enable-background:new 0 0 82.8 70.6;" xml:space="preserve">
<style type="text/css">
	.st0{fill:#F0414B;stroke:#F0414B;stroke-miterlimit:10;}
</style>
<path class="st0" d="M41.3,69.5c-0.2,0-0.3,0-0.5-0.1c-6-3-36.1-19.2-39.3-40.2c-1.4-8.9,0.1-16,4.4-21C12,1.1,21.4,0.6,24.2,0.6
	c6.7,0,14.3,6,17.1,12.5C44.1,6.6,51.8,0.6,58.4,0.6c2.8,0,12.2,0.6,18.3,7.6c4.3,5,5.8,12.1,4.4,21c-3.2,21-33.3,37.2-39.3,40.2
	C41.8,69.5,41.5,69.5,41.3,69.5z M24.3,2.7C19.1,2.7,12,4.5,7.7,9.6c-3.9,4.5-5.2,11-3.9,19.3c3,19.6,32.3,35.6,37.6,38.4
	C46.7,64.6,76,48.6,79,28.9c1.3-8.3-0.1-14.7-3.9-19.3c-4.4-5.1-11.5-6.9-16.7-6.9c-7.2,0-16,8.3-16,15.1c0,0.6-0.5,1.1-1.1,1.1
	s-1.1-0.5-1.1-1.1C40.2,11,31.5,2.7,24.3,2.7z M24.2,2.8C19,2.8,11.9,4.6,7.6,9.7c-3.9,4.5-5.2,11-3.9,19.3
	c3,19.6,32.3,35.6,37.6,38.4c5.3-2.7,34.6-18.7,37.6-38.4c1.3-8.3-0.1-14.7-3.9-19.3c-4.4-5.1-11.5-6.9-16.7-6.9
	c-7.2,0-16,8.3-16,15.1c0,0.6-0.5,1.1-1.1,1.1s-1.1-0.5-1.1-1.1C40.1,11.1,31.3,2.8,24.2,2.8z"/>
</svg>
