<?xml version="1.0" encoding="utf-8"?>
<!-- Generator: Adobe Illustrator 21.0.0, SVG Export Plug-In . SVG Version: 6.00 Build 0)  -->
<svg version="1.1" id="Layer_1" xmlns="http://www.w3.org/2000/svg" xmlns:xlink="http://www.w3.org/1999/xlink" x="0px" y="0px"
	 viewBox="0 0 73.8 61.3" style="enable-background:new 0 0 73.8 61.3;" xml:space="preserve">
<style type="text/css">
	.st0{fill:#FFFFFF;}
	.st1{fill:#FFFFFF;stroke:#FFFFFF;stroke-miterlimit:10;}
</style>
<path class="st0" d="M20.7,60.5c-1.9,0-3.6-0.7-4.9-2L2.9,45.6c-2.7-2.7-2.9-7.1-0.5-9.8c1.3-1.4,3.1-2.2,5-2.3c1.9,0,3.7,0.7,5.1,2
	l8.2,8.2L60.9,3.5c2.4-2.4,6.1-2.8,8.8-1c1.8,1.2,2.9,3,3.1,5.1s-0.5,4.1-2,5.6L25.6,58.5C24.3,59.8,22.5,60.5,20.7,60.5z M7.6,35.7
	H7.5c-1.3,0-2.5,0.6-3.4,1.6c-1.7,1.8-1.5,4.9,0.4,6.7l12.8,12.9c1.8,1.8,4.9,1.8,6.7,0l45.2-45.2c1-1,1.5-2.4,1.4-3.8
	s-0.9-2.7-2.1-3.5c-1.8-1.2-4.4-0.9-6,0.7L20.7,46.9l-9.8-9.8C10,36.2,8.8,35.7,7.6,35.7z"/>
<path class="st1" d="M7.6,35.7H7.5c-1.3,0-2.5,0.6-3.4,1.6c-1.7,1.8-1.5,4.9,0.4,6.7l12.8,12.9c1.8,1.8,4.9,1.8,6.7,0l45.2-45.2
	c1-1,1.5-2.4,1.4-3.8s-0.9-2.7-2.1-3.5c-1.8-1.2-4.4-0.9-6,0.7L20.7,46.9l-9.8-9.8C10,36.2,8.8,35.7,7.6,35.7z"/>
</svg>
