<?xml version="1.0" encoding="utf-8"?>
<!-- Generator: Adobe Illustrator 21.0.0, SVG Export Plug-In . SVG Version: 6.00 Build 0)  -->
<svg version="1.1" id="Layer_1" xmlns="http://www.w3.org/2000/svg" xmlns:xlink="http://www.w3.org/1999/xlink" x="0px" y="0px"
	 viewBox="0 0 57.1 69.4" style="enable-background:new 0 0 57.1 69.4;" xml:space="preserve">
<style type="text/css">
	.st0{fill:#F0414B;}
</style>
<g>
	<path class="st0" d="M42.7,69.4H14.4c-3.7,0-6.7-2.9-6.9-6.6L4.8,11.4h47.5l-2.7,51.4C49.4,66.5,46.4,69.4,42.7,69.4z M7.1,13.6
		l2.6,49.1c0.1,2.5,2.2,4.5,4.7,4.5h28.2c2.5,0,4.6-2,4.7-4.5L50,13.6H7.1z"/>
	<path class="st0" d="M57.1,13.6H0v-2.9c0-3.8,3.1-6.9,6.9-6.9h13.8V0h15.7v3.8h13.8c3.8,0,6.9,3.1,6.9,6.9V13.6z M2.2,11.4h52.7
		v-0.7c0-2.6-2.1-4.7-4.7-4.7h-16V2.2H22.9V6h-16c-2.6,0-4.7,2.1-4.7,4.7C2.2,10.7,2.2,11.4,2.2,11.4z"/>
	<g>
		
			<rect x="19.1" y="12.5" transform="matrix(0.9989 -4.787732e-02 4.787732e-02 0.9989 -1.9109 1.0145)" class="st0" width="2.2" height="55.8"/>
		
			<rect x="9" y="39.3" transform="matrix(4.818572e-02 -0.9988 0.9988 4.818572e-02 -5.2294 75.3055)" class="st0" width="55.8" height="2.2"/>
	</g>
	<rect x="25.3" y="3.3" class="st0" width="6.6" height="2.2"/>
</g>
</svg>
